<?xml version="1.0" standalone="no"?>
<!DOCTYPE svg PUBLIC "-//W3C//DTD SVG 20010904//EN"
 "http://www.w3.org/TR/2001/REC-SVG-20010904/DTD/svg10.dtd">
<svg version="1.0" xmlns="http://www.w3.org/2000/svg"
 width="24.000000pt" height="25.000000pt" viewBox="0 0 24.000000 25.000000"
 preserveAspectRatio="xMidYMid meet">

<g transform="translate(0.000000,25.000000) scale(0.100000,-0.100000)"
fill="#000000" stroke="none">
<path d="M0 230 c0 -6 45 -10 114 -10 66 0 117 4 121 10 4 6 -37 10 -114 10
-74 0 -121 -4 -121 -10z"/>
<path d="M5 130 c-3 -5 0 -13 8 -15 24 -10 217 -1 220 10 3 14 -219 19 -228 5z"/>
<path d="M5 20 c-4 -6 37 -10 115 -10 78 0 119 4 115 10 -8 13 -222 13 -230 0z"/>
</g>
</svg>
